<mxfile host="app.diagrams.net" modified="2020-10-20T01:34:52.419Z" agent="5.0 (Windows NT 10.0; Win64; x64) AppleWebKit/537.36 (KHTML, like Gecko) Chrome/78.0.3904.70 Safari/537.36" etag="3LY788_oP3a-5Bj4A7-C" version="13.8.0" type="github">
  <diagram id="C5RBs43oDa-KdzZeNtuy" name="Page-1">
    <mxGraphModel dx="1038" dy="556" grid="1" gridSize="10" guides="1" tooltips="1" connect="1" arrows="1" fold="1" page="1" pageScale="1" pageWidth="827" pageHeight="1169" math="0" shadow="0">
      <root>
        <mxCell id="WIyWlLk6GJQsqaUBKTNV-0" />
        <mxCell id="WIyWlLk6GJQsqaUBKTNV-1" parent="WIyWlLk6GJQsqaUBKTNV-0" />
        <mxCell id="J6Yfea7Bva-FCWTQgZ2s-0" value="Book" style="html=1;fontStyle=1;fontSize=13;" parent="WIyWlLk6GJQsqaUBKTNV-1" vertex="1">
          <mxGeometry x="260" y="340" width="110" height="50" as="geometry" />
        </mxCell>
        <mxCell id="J6Yfea7Bva-FCWTQgZ2s-1" value="Author" style="html=1;fontStyle=1;fontSize=13;" parent="WIyWlLk6GJQsqaUBKTNV-1" vertex="1">
          <mxGeometry x="220" y="180" width="110" height="50" as="geometry" />
        </mxCell>
        <mxCell id="J6Yfea7Bva-FCWTQgZ2s-2" value="Publisher" style="html=1;fontStyle=1;fontSize=13;" parent="WIyWlLk6GJQsqaUBKTNV-1" vertex="1">
          <mxGeometry x="20" y="340" width="110" height="50" as="geometry" />
        </mxCell>
        <mxCell id="J6Yfea7Bva-FCWTQgZ2s-3" value="Library" style="html=1;fontStyle=1;fontSize=13;" parent="WIyWlLk6GJQsqaUBKTNV-1" vertex="1">
          <mxGeometry x="304" y="20" width="110" height="50" as="geometry" />
        </mxCell>
        <mxCell id="J6Yfea7Bva-FCWTQgZ2s-4" value="Fiction&lt;br style=&quot;font-size: 13px;&quot;&gt;Category" style="html=1;fontStyle=1;fontSize=13;" parent="WIyWlLk6GJQsqaUBKTNV-1" vertex="1">
          <mxGeometry x="180" y="470" width="110" height="50" as="geometry" />
        </mxCell>
        <mxCell id="J6Yfea7Bva-FCWTQgZ2s-5" value="Mystery&lt;br style=&quot;font-size: 13px;&quot;&gt;Category" style="html=1;fontStyle=1;fontSize=13;" parent="WIyWlLk6GJQsqaUBKTNV-1" vertex="1">
          <mxGeometry x="330" y="470" width="110" height="50" as="geometry" />
        </mxCell>
        <mxCell id="J6Yfea7Bva-FCWTQgZ2s-6" value="Owner" style="html=1;fontStyle=1;fontSize=13;" parent="WIyWlLk6GJQsqaUBKTNV-1" vertex="1">
          <mxGeometry x="590" y="340" width="110" height="50" as="geometry" />
        </mxCell>
        <mxCell id="J6Yfea7Bva-FCWTQgZ2s-8" value="" style="endArrow=block;endSize=16;endFill=0;html=1;fontSize=13;entryX=0.25;entryY=1;entryDx=0;entryDy=0;exitX=0.5;exitY=0;exitDx=0;exitDy=0;" parent="WIyWlLk6GJQsqaUBKTNV-1" source="J6Yfea7Bva-FCWTQgZ2s-4" target="J6Yfea7Bva-FCWTQgZ2s-0" edge="1">
          <mxGeometry x="1" y="-187" width="160" relative="1" as="geometry">
            <mxPoint x="311" y="443.4" as="sourcePoint" />
            <mxPoint x="330" y="420" as="targetPoint" />
            <mxPoint x="73" y="-180" as="offset" />
          </mxGeometry>
        </mxCell>
        <mxCell id="J6Yfea7Bva-FCWTQgZ2s-13" value="" style="endArrow=block;endSize=16;endFill=0;html=1;fontSize=13;entryX=0.75;entryY=1;entryDx=0;entryDy=0;exitX=0.5;exitY=0;exitDx=0;exitDy=0;" parent="WIyWlLk6GJQsqaUBKTNV-1" source="J6Yfea7Bva-FCWTQgZ2s-5" target="J6Yfea7Bva-FCWTQgZ2s-0" edge="1">
          <mxGeometry width="160" relative="1" as="geometry">
            <mxPoint x="210" y="310" as="sourcePoint" />
            <mxPoint x="370" y="310" as="targetPoint" />
          </mxGeometry>
        </mxCell>
        <mxCell id="J6Yfea7Bva-FCWTQgZ2s-18" value="1..*" style="text;html=1;align=center;verticalAlign=middle;resizable=0;points=[];autosize=1;fontSize=13;" parent="WIyWlLk6GJQsqaUBKTNV-1" vertex="1">
          <mxGeometry x="275" y="230" width="30" height="20" as="geometry" />
        </mxCell>
        <mxCell id="J6Yfea7Bva-FCWTQgZ2s-19" value="0..*" style="text;html=1;align=center;verticalAlign=middle;resizable=0;points=[];autosize=1;fontSize=13;" parent="WIyWlLk6GJQsqaUBKTNV-1" vertex="1">
          <mxGeometry x="275" y="320" width="30" height="20" as="geometry" />
        </mxCell>
        <mxCell id="J6Yfea7Bva-FCWTQgZ2s-20" value="0..*" style="text;html=1;align=center;verticalAlign=middle;resizable=0;points=[];autosize=1;fontSize=13;" parent="WIyWlLk6GJQsqaUBKTNV-1" vertex="1">
          <mxGeometry x="230" y="340" width="30" height="20" as="geometry" />
        </mxCell>
        <mxCell id="J6Yfea7Bva-FCWTQgZ2s-21" value="1" style="text;html=1;align=center;verticalAlign=middle;resizable=0;points=[];autosize=1;fontSize=13;" parent="WIyWlLk6GJQsqaUBKTNV-1" vertex="1">
          <mxGeometry x="130" y="340" width="20" height="20" as="geometry" />
        </mxCell>
        <mxCell id="pX-2zw3ESRABxj5VxU-J-1" value="0..*" style="text;html=1;align=center;verticalAlign=middle;resizable=0;points=[];autosize=1;fontSize=13;" vertex="1" parent="WIyWlLk6GJQsqaUBKTNV-1">
          <mxGeometry x="545" y="340" width="30" height="20" as="geometry" />
        </mxCell>
        <mxCell id="pX-2zw3ESRABxj5VxU-J-10" value="" style="endArrow=none;html=1;edgeStyle=orthogonalEdgeStyle;entryX=0.5;entryY=1;entryDx=0;entryDy=0;exitX=0.142;exitY=0.028;exitDx=0;exitDy=0;exitPerimeter=0;" edge="1" parent="WIyWlLk6GJQsqaUBKTNV-1" source="J6Yfea7Bva-FCWTQgZ2s-0" target="J6Yfea7Bva-FCWTQgZ2s-1">
          <mxGeometry relative="1" as="geometry">
            <mxPoint x="130" y="280" as="sourcePoint" />
            <mxPoint x="290" y="280" as="targetPoint" />
          </mxGeometry>
        </mxCell>
        <mxCell id="pX-2zw3ESRABxj5VxU-J-17" value="write" style="edgeLabel;html=1;align=center;verticalAlign=middle;resizable=0;points=[];" vertex="1" connectable="0" parent="pX-2zw3ESRABxj5VxU-J-10">
          <mxGeometry x="0.225" y="-3" relative="1" as="geometry">
            <mxPoint x="-1" y="7" as="offset" />
          </mxGeometry>
        </mxCell>
        <mxCell id="pX-2zw3ESRABxj5VxU-J-13" value="" style="endArrow=none;html=1;edgeStyle=orthogonalEdgeStyle;entryX=0;entryY=0.5;entryDx=0;entryDy=0;" edge="1" parent="WIyWlLk6GJQsqaUBKTNV-1" target="J6Yfea7Bva-FCWTQgZ2s-0">
          <mxGeometry relative="1" as="geometry">
            <mxPoint x="130" y="364.5" as="sourcePoint" />
            <mxPoint x="270" y="365" as="targetPoint" />
          </mxGeometry>
        </mxCell>
        <mxCell id="pX-2zw3ESRABxj5VxU-J-16" value="publish" style="edgeLabel;html=1;align=center;verticalAlign=middle;resizable=0;points=[];" vertex="1" connectable="0" parent="pX-2zw3ESRABxj5VxU-J-13">
          <mxGeometry x="0.2" y="3" relative="1" as="geometry">
            <mxPoint x="-17.5" y="3" as="offset" />
          </mxGeometry>
        </mxCell>
        <mxCell id="pX-2zw3ESRABxj5VxU-J-27" value="" style="endArrow=diamondThin;endFill=0;endSize=24;html=1;entryX=1;entryY=0.5;entryDx=0;entryDy=0;exitX=0;exitY=0.5;exitDx=0;exitDy=0;" edge="1" parent="WIyWlLk6GJQsqaUBKTNV-1" source="J6Yfea7Bva-FCWTQgZ2s-6" target="J6Yfea7Bva-FCWTQgZ2s-0">
          <mxGeometry width="160" relative="1" as="geometry">
            <mxPoint x="330" y="290" as="sourcePoint" />
            <mxPoint x="490" y="290" as="targetPoint" />
          </mxGeometry>
        </mxCell>
        <mxCell id="pX-2zw3ESRABxj5VxU-J-28" value="owns" style="edgeLabel;html=1;align=center;verticalAlign=middle;resizable=0;points=[];" vertex="1" connectable="0" parent="pX-2zw3ESRABxj5VxU-J-27">
          <mxGeometry x="0.1382" y="3" relative="1" as="geometry">
            <mxPoint x="15" y="-3" as="offset" />
          </mxGeometry>
        </mxCell>
        <mxCell id="pX-2zw3ESRABxj5VxU-J-29" value="" style="endArrow=diamondThin;endFill=0;endSize=24;html=1;entryX=0.898;entryY=-0.068;entryDx=0;entryDy=0;entryPerimeter=0;exitX=0.5;exitY=1;exitDx=0;exitDy=0;" edge="1" parent="WIyWlLk6GJQsqaUBKTNV-1" source="J6Yfea7Bva-FCWTQgZ2s-3" target="J6Yfea7Bva-FCWTQgZ2s-0">
          <mxGeometry width="160" relative="1" as="geometry">
            <mxPoint x="330" y="290" as="sourcePoint" />
            <mxPoint x="490" y="290" as="targetPoint" />
          </mxGeometry>
        </mxCell>
        <mxCell id="pX-2zw3ESRABxj5VxU-J-33" value="records" style="edgeLabel;html=1;align=center;verticalAlign=middle;resizable=0;points=[];" vertex="1" connectable="0" parent="pX-2zw3ESRABxj5VxU-J-29">
          <mxGeometry x="-0.5244" y="-1" relative="1" as="geometry">
            <mxPoint as="offset" />
          </mxGeometry>
        </mxCell>
        <mxCell id="pX-2zw3ESRABxj5VxU-J-32" value="1" style="text;html=1;align=center;verticalAlign=middle;resizable=0;points=[];autosize=1;" vertex="1" parent="WIyWlLk6GJQsqaUBKTNV-1">
          <mxGeometry x="360" y="70" width="20" height="20" as="geometry" />
        </mxCell>
      </root>
    </mxGraphModel>
  </diagram>
</mxfile>
